<svg xmlns="http://www.w3.org/2000/svg" width="100" height="100" viewBox="0 0 100 100" fill="none" stroke="currentColor">
  <g stroke-linecap="round" stroke-linejoin="round">
    <path d="M37 19.5 H27.5 a6.25 6.25 0 0 0 -6.25 6.25 V81.5 a6.25 6.25 0 0 0 6.25 6.25 H72.5 a6.25 6.25 0 0 0 6.25 -6.25 V25.75 a6.25 6.25 0 0 0 -6.25 -6.25 H63" stroke-width="8"/>
    <rect x="37" y="12.25" width="26" height="14.5" rx="5" stroke-width="8"/>
    <g stroke-width="4">
      <line x1="34.5" y1="40" x2="65.5" y2="40"/>
      <line x1="34.5" y1="52" x2="65.5" y2="52"/>
    </g>
    <polygon points="55 57 58.4 65.6 67 69 58.4 72.4 55 81 51.6 72.4 43 69 51.6 65.6" fill="currentColor" stroke="none"/>
  </g>
</svg>
